<svg xmlns="http://www.w3.org/2000/svg" xmlns:xlink="http://www.w3.org/1999/xlink" width="1024" zoomAndPan="magnify" viewBox="0 0 768 767.999994" height="1024" preserveAspectRatio="xMidYMid meet" version="1.0"><defs><clipPath id="868b631136"><path d="M 36 0 L 732 0 C 741.546875 0 750.703125 3.792969 757.457031 10.542969 C 764.207031 17.296875 768 26.453125 768 36 L 768 732 C 768 751.882812 751.882812 768 732 768 L 36 768 C 26.453125 768 17.296875 764.207031 10.542969 757.457031 C 3.792969 750.703125 0 741.546875 0 732 L 0 36 C 0 16.117188 16.117188 0 36 0 Z M 36 0 " clip-rule="nonzero"/></clipPath><clipPath id="e132d1c922"><path d="M 0 0 L 768 0 L 768 768 L 0 768 Z M 0 0 " clip-rule="nonzero"/></clipPath><clipPath id="0c9e60cb0c"><path d="M 36 0 L 732 0 C 741.546875 0 750.703125 3.792969 757.457031 10.542969 C 764.207031 17.296875 768 26.453125 768 36 L 768 732 C 768 751.882812 751.882812 768 732 768 L 36 768 C 26.453125 768 17.296875 764.207031 10.542969 757.457031 C 3.792969 750.703125 0 741.546875 0 732 L 0 36 C 0 16.117188 16.117188 0 36 0 Z M 36 0 " clip-rule="nonzero"/></clipPath><clipPath id="1f5d75809d"><rect x="0" width="768" y="0" height="768"/></clipPath><clipPath id="bb88d4c101"><path d="M 204 241 L 240 241 L 240 276.277344 L 204 276.277344 Z M 204 241 " clip-rule="nonzero"/></clipPath><clipPath id="8b85f28776"><path d="M 446 241 L 482 241 L 482 276.277344 L 446 276.277344 Z M 446 241 " clip-rule="nonzero"/></clipPath><clipPath id="f21a42abfd"><path d="M 528 241 L 564 241 L 564 276.277344 L 528 276.277344 Z M 528 241 " clip-rule="nonzero"/></clipPath><clipPath id="10993ff0fa"><path d="M 283 241 L 319 241 L 319 276.277344 L 283 276.277344 Z M 283 241 " clip-rule="nonzero"/></clipPath><clipPath id="a2cbb5e1a8"><path d="M 105.394531 94 L 135 94 L 135 230 L 105.394531 230 Z M 105.394531 94 " clip-rule="nonzero"/></clipPath><clipPath id="a38ebb73a5"><path d="M 105.394531 221 L 142 221 L 142 242 L 105.394531 242 Z M 105.394531 221 " clip-rule="nonzero"/></clipPath><clipPath id="c0d90e8e78"><path d="M 633 94 L 662.644531 94 L 662.644531 230 L 633 230 Z M 633 94 " clip-rule="nonzero"/></clipPath><clipPath id="fb8d5124b4"><path d="M 626 221 L 662.644531 221 L 662.644531 242 L 626 242 Z M 626 221 " clip-rule="nonzero"/></clipPath><clipPath id="96be3da63c"><path d="M 349 16.777344 L 415 16.777344 L 415 82 L 349 82 Z M 349 16.777344 " clip-rule="nonzero"/></clipPath><clipPath id="8267a59bde"><path d="M 72.140625 375.167969 L 325.640625 375.167969 L 325.640625 663.917969 L 72.140625 663.917969 Z M 72.140625 375.167969 " clip-rule="nonzero"/></clipPath><clipPath id="8c40bfb200"><path d="M 0.140625 0.167969 L 197 0.167969 L 197 259 L 0.140625 259 Z M 0.140625 0.167969 " clip-rule="nonzero"/></clipPath><clipPath id="91c1fcf06b"><path d="M 73 108 L 253.347656 108 L 253.347656 288.917969 L 73 288.917969 Z M 73 108 " clip-rule="nonzero"/></clipPath><clipPath id="517db387f8"><rect x="0" width="254" y="0" height="289"/></clipPath></defs><g clip-path="url(#868b631136)"><g transform="matrix(1, 0, 0, 1, 0, -0.000000000000057351)"><g clip-path="url(#1f5d75809d)"><g clip-path="url(#e132d1c922)"><g clip-path="url(#0c9e60cb0c)"><rect x="-168.96" width="1105.92" fill="#df5286" height="1105.919991" y="-168.959999" fill-opacity="1"/></g></g></g></g></g><path stroke-linecap="butt" transform="matrix(0.75, -0.000000000000000093, 0.000000000000000093, 0.75, 51.758098, 664.028843)" fill="none" stroke-linejoin="miter" d="M -0.000380719 9.498001 L 885.97883 9.498001 " stroke="#ffffff" stroke-width="19" stroke-opacity="1" stroke-miterlimit="4"/><g clip-path="url(#bb88d4c101)"><path fill="#dfc752" d="M 239.691406 258.859375 C 239.691406 259.4375 239.664062 260.019531 239.605469 260.597656 C 239.550781 261.175781 239.464844 261.746094 239.351562 262.316406 C 239.238281 262.886719 239.097656 263.449219 238.929688 264.003906 C 238.757812 264.5625 238.5625 265.109375 238.339844 265.644531 C 238.121094 266.179688 237.871094 266.707031 237.597656 267.21875 C 237.324219 267.730469 237.023438 268.226562 236.703125 268.710938 C 236.378906 269.195312 236.035156 269.660156 235.664062 270.109375 C 235.296875 270.558594 234.90625 270.988281 234.496094 271.398438 C 234.085938 271.808594 233.65625 272.199219 233.207031 272.566406 C 232.757812 272.9375 232.292969 273.28125 231.808594 273.605469 C 231.328125 273.925781 230.828125 274.226562 230.316406 274.5 C 229.804688 274.773438 229.28125 275.019531 228.742188 275.242188 C 228.207031 275.464844 227.660156 275.660156 227.105469 275.828125 C 226.546875 275.996094 225.984375 276.140625 225.417969 276.253906 C 224.847656 276.367188 224.273438 276.449219 223.695312 276.507812 C 223.117188 276.566406 222.535156 276.59375 221.957031 276.59375 C 221.375 276.59375 220.796875 276.566406 220.21875 276.507812 C 219.640625 276.449219 219.066406 276.367188 218.496094 276.253906 C 217.925781 276.140625 217.363281 275.996094 216.808594 275.828125 C 216.25 275.660156 215.707031 275.464844 215.167969 275.242188 C 214.632812 275.019531 214.109375 274.773438 213.59375 274.5 C 213.082031 274.226562 212.585938 273.925781 212.101562 273.605469 C 211.621094 273.28125 211.152344 272.9375 210.703125 272.566406 C 210.253906 272.199219 209.824219 271.808594 209.414062 271.398438 C 209.003906 270.988281 208.613281 270.558594 208.246094 270.109375 C 207.878906 269.660156 207.53125 269.195312 207.210938 268.710938 C 206.886719 268.226562 206.589844 267.730469 206.316406 267.21875 C 206.039062 266.707031 205.792969 266.179688 205.570312 265.644531 C 205.347656 265.109375 205.152344 264.5625 204.984375 264.003906 C 204.816406 263.449219 204.675781 262.886719 204.5625 262.316406 C 204.449219 261.746094 204.363281 261.175781 204.304688 260.597656 C 204.25 260.019531 204.21875 259.4375 204.21875 258.859375 C 204.21875 258.277344 204.25 257.695312 204.304688 257.117188 C 204.363281 256.542969 204.449219 255.96875 204.5625 255.398438 C 204.675781 254.828125 204.816406 254.265625 204.984375 253.710938 C 205.152344 253.152344 205.347656 252.605469 205.570312 252.070312 C 205.792969 251.535156 206.039062 251.007812 206.316406 250.496094 C 206.589844 249.984375 206.886719 249.488281 207.210938 249.003906 C 207.53125 248.519531 207.878906 248.054688 208.246094 247.605469 C 208.613281 247.15625 209.003906 246.726562 209.414062 246.316406 C 209.824219 245.90625 210.253906 245.515625 210.703125 245.148438 C 211.152344 244.777344 211.621094 244.433594 212.101562 244.109375 C 212.585938 243.789062 213.082031 243.488281 213.59375 243.214844 C 214.109375 242.941406 214.632812 242.695312 215.167969 242.472656 C 215.707031 242.25 216.25 242.054688 216.808594 241.886719 C 217.363281 241.71875 217.925781 241.574219 218.496094 241.460938 C 219.066406 241.347656 219.640625 241.265625 220.21875 241.207031 C 220.796875 241.152344 221.375 241.121094 221.957031 241.121094 C 222.535156 241.121094 223.117188 241.152344 223.695312 241.207031 C 224.273438 241.265625 224.847656 241.347656 225.417969 241.460938 C 225.984375 241.574219 226.546875 241.71875 227.105469 241.886719 C 227.660156 242.054688 228.207031 242.25 228.742188 242.472656 C 229.28125 242.695312 229.804688 242.941406 230.316406 243.214844 C 230.828125 243.488281 231.328125 243.789062 231.808594 244.109375 C 232.292969 244.433594 232.757812 244.777344 233.207031 245.148438 C 233.65625 245.515625 234.085938 245.90625 234.496094 246.316406 C 234.90625 246.726562 235.296875 247.15625 235.664062 247.605469 C 236.035156 248.054688 236.378906 248.519531 236.703125 249.003906 C 237.023438 249.488281 237.324219 249.984375 237.597656 250.496094 C 237.871094 251.007812 238.121094 251.535156 238.339844 252.070312 C 238.5625 252.605469 238.757812 253.152344 238.929688 253.710938 C 239.097656 254.265625 239.238281 254.828125 239.351562 255.398438 C 239.464844 255.96875 239.550781 256.542969 239.605469 257.117188 C 239.664062 257.695312 239.691406 258.277344 239.691406 258.859375 Z M 239.691406 258.859375 " fill-opacity="1" fill-rule="nonzero"/></g><g clip-path="url(#8b85f28776)"><path fill="#dfc752" d="M 481.542969 258.859375 C 481.542969 259.4375 481.515625 260.019531 481.457031 260.597656 C 481.398438 261.175781 481.316406 261.746094 481.203125 262.316406 C 481.089844 262.886719 480.949219 263.449219 480.777344 264.003906 C 480.609375 264.5625 480.414062 265.109375 480.191406 265.644531 C 479.96875 266.179688 479.722656 266.707031 479.449219 267.21875 C 479.175781 267.730469 478.875 268.226562 478.554688 268.710938 C 478.230469 269.195312 477.886719 269.660156 477.515625 270.109375 C 477.148438 270.558594 476.757812 270.988281 476.347656 271.398438 C 475.9375 271.808594 475.507812 272.199219 475.058594 272.566406 C 474.609375 272.9375 474.144531 273.28125 473.660156 273.605469 C 473.175781 273.925781 472.679688 274.226562 472.167969 274.5 C 471.65625 274.773438 471.128906 275.019531 470.59375 275.242188 C 470.058594 275.464844 469.511719 275.660156 468.957031 275.828125 C 468.398438 275.996094 467.835938 276.140625 467.265625 276.253906 C 466.699219 276.367188 466.125 276.449219 465.546875 276.507812 C 464.96875 276.566406 464.386719 276.59375 463.808594 276.59375 C 463.226562 276.59375 462.648438 276.566406 462.070312 276.507812 C 461.492188 276.449219 460.917969 276.367188 460.347656 276.253906 C 459.777344 276.140625 459.214844 275.996094 458.660156 275.828125 C 458.101562 275.660156 457.554688 275.464844 457.019531 275.242188 C 456.484375 275.019531 455.957031 274.773438 455.445312 274.5 C 454.933594 274.226562 454.4375 273.925781 453.953125 273.605469 C 453.46875 273.28125 453.003906 272.9375 452.554688 272.566406 C 452.105469 272.199219 451.675781 271.808594 451.265625 271.398438 C 450.855469 270.988281 450.464844 270.558594 450.097656 270.109375 C 449.730469 269.660156 449.382812 269.195312 449.058594 268.710938 C 448.738281 268.226562 448.441406 267.730469 448.164062 267.21875 C 447.890625 266.707031 447.644531 266.179688 447.421875 265.644531 C 447.199219 265.109375 447.003906 264.5625 446.835938 264.003906 C 446.667969 263.449219 446.527344 262.886719 446.414062 262.316406 C 446.300781 261.746094 446.214844 261.175781 446.15625 260.597656 C 446.101562 260.019531 446.070312 259.4375 446.070312 258.859375 C 446.070312 258.277344 446.101562 257.695312 446.15625 257.117188 C 446.214844 256.542969 446.300781 255.96875 446.414062 255.398438 C 446.527344 254.828125 446.667969 254.265625 446.835938 253.710938 C 447.003906 253.152344 447.199219 252.605469 447.421875 252.070312 C 447.644531 251.535156 447.890625 251.007812 448.164062 250.496094 C 448.441406 249.984375 448.738281 249.488281 449.058594 249.003906 C 449.382812 248.519531 449.730469 248.054688 450.097656 247.605469 C 450.464844 247.15625 450.855469 246.726562 451.265625 246.316406 C 451.675781 245.90625 452.105469 245.515625 452.554688 245.148438 C 453.003906 244.777344 453.46875 244.433594 453.953125 244.109375 C 454.4375 243.789062 454.933594 243.488281 455.445312 243.214844 C 455.957031 242.941406 456.484375 242.695312 457.019531 242.472656 C 457.554688 242.25 458.101562 242.054688 458.660156 241.886719 C 459.214844 241.71875 459.777344 241.574219 460.347656 241.460938 C 460.917969 241.347656 461.492188 241.265625 462.070312 241.207031 C 462.648438 241.152344 463.226562 241.121094 463.808594 241.121094 C 464.386719 241.121094 464.96875 241.152344 465.546875 241.207031 C 466.125 241.265625 466.699219 241.347656 467.265625 241.460938 C 467.835938 241.574219 468.398438 241.71875 468.957031 241.886719 C 469.511719 242.054688 470.058594 242.25 470.59375 242.472656 C 471.128906 242.695312 471.65625 242.941406 472.167969 243.214844 C 472.679688 243.488281 473.175781 243.789062 473.660156 244.109375 C 474.144531 244.433594 474.609375 244.777344 475.058594 245.148438 C 475.507812 245.515625 475.9375 245.90625 476.347656 246.316406 C 476.757812 246.726562 477.148438 247.15625 477.515625 247.605469 C 477.886719 248.054688 478.230469 248.519531 478.554688 249.003906 C 478.875 249.488281 479.175781 249.984375 479.449219 250.496094 C 479.722656 251.007812 479.96875 251.535156 480.191406 252.070312 C 480.414062 252.605469 480.609375 253.152344 480.777344 253.710938 C 480.949219 254.265625 481.089844 254.828125 481.203125 255.398438 C 481.316406 255.96875 481.398438 256.542969 481.457031 257.117188 C 481.515625 257.695312 481.542969 258.277344 481.542969 258.859375 Z M 481.542969 258.859375 " fill-opacity="1" fill-rule="nonzero"/></g><g clip-path="url(#f21a42abfd)"><path fill="#dfc752" d="M 563.773438 258.859375 C 563.773438 259.4375 563.742188 260.019531 563.6875 260.597656 C 563.628906 261.175781 563.542969 261.746094 563.429688 262.316406 C 563.316406 262.886719 563.175781 263.449219 563.007812 264.003906 C 562.839844 264.5625 562.644531 265.109375 562.421875 265.644531 C 562.199219 266.179688 561.953125 266.707031 561.675781 267.21875 C 561.402344 267.730469 561.105469 268.226562 560.78125 268.710938 C 560.460938 269.195312 560.113281 269.660156 559.746094 270.109375 C 559.378906 270.558594 558.988281 270.988281 558.578125 271.398438 C 558.167969 271.808594 557.738281 272.199219 557.289062 272.566406 C 556.839844 272.9375 556.371094 273.28125 555.890625 273.605469 C 555.40625 273.925781 554.910156 274.226562 554.398438 274.5 C 553.882812 274.773438 553.359375 275.019531 552.824219 275.242188 C 552.285156 275.464844 551.742188 275.660156 551.183594 275.828125 C 550.628906 275.996094 550.066406 276.140625 549.496094 276.253906 C 548.925781 276.367188 548.351562 276.449219 547.773438 276.507812 C 547.195312 276.566406 546.617188 276.59375 546.035156 276.59375 C 545.457031 276.59375 544.875 276.566406 544.296875 276.507812 C 543.71875 276.449219 543.144531 276.367188 542.574219 276.253906 C 542.007812 276.140625 541.445312 275.996094 540.886719 275.828125 C 540.332031 275.660156 539.785156 275.464844 539.25 275.242188 C 538.710938 275.019531 538.1875 274.773438 537.675781 274.5 C 537.164062 274.226562 536.664062 273.925781 536.183594 273.605469 C 535.699219 273.28125 535.234375 272.9375 534.785156 272.566406 C 534.335938 272.199219 533.90625 271.808594 533.496094 271.398438 C 533.085938 270.988281 532.695312 270.558594 532.328125 270.109375 C 531.957031 269.660156 531.613281 269.195312 531.289062 268.710938 C 530.96875 268.226562 530.667969 267.730469 530.394531 267.21875 C 530.121094 266.707031 529.871094 266.179688 529.652344 265.644531 C 529.429688 265.109375 529.234375 264.5625 529.0625 264.003906 C 528.894531 263.449219 528.753906 262.886719 528.640625 262.316406 C 528.527344 261.746094 528.441406 261.175781 528.386719 260.597656 C 528.328125 260.019531 528.300781 259.4375 528.300781 258.859375 C 528.300781 258.277344 528.328125 257.695312 528.386719 257.117188 C 528.441406 256.542969 528.527344 255.96875 528.640625 255.398438 C 528.753906 254.828125 528.894531 254.265625 529.0625 253.710938 C 529.234375 253.152344 529.429688 252.605469 529.652344 252.070312 C 529.871094 251.535156 530.121094 251.007812 530.394531 250.496094 C 530.667969 249.984375 530.96875 249.488281 531.289062 249.003906 C 531.613281 248.519531 531.957031 248.054688 532.328125 247.605469 C 532.695312 247.15625 533.085938 246.726562 533.496094 246.316406 C 533.90625 245.90625 534.335938 245.515625 534.785156 245.148438 C 535.234375 244.777344 535.699219 244.433594 536.183594 244.109375 C 536.664062 243.789062 537.164062 243.488281 537.675781 243.214844 C 538.1875 242.941406 538.710938 242.695312 539.25 242.472656 C 539.785156 242.25 540.332031 242.054688 540.886719 241.886719 C 541.445312 241.71875 542.007812 241.574219 542.574219 241.460938 C 543.144531 241.347656 543.71875 241.265625 544.296875 241.207031 C 544.875 241.152344 545.457031 241.121094 546.035156 241.121094 C 546.617188 241.121094 547.195312 241.152344 547.773438 241.207031 C 548.351562 241.265625 548.925781 241.347656 549.496094 241.460938 C 550.066406 241.574219 550.628906 241.71875 551.183594 241.886719 C 551.742188 242.054688 552.285156 242.25 552.824219 242.472656 C 553.359375 242.695312 553.882812 242.941406 554.398438 243.214844 C 554.910156 243.488281 555.40625 243.789062 555.890625 244.109375 C 556.371094 244.433594 556.839844 244.777344 557.289062 245.148438 C 557.738281 245.515625 558.167969 245.90625 558.578125 246.316406 C 558.988281 246.726562 559.378906 247.15625 559.746094 247.605469 C 560.113281 248.054688 560.460938 248.519531 560.78125 249.003906 C 561.105469 249.488281 561.402344 249.984375 561.675781 250.496094 C 561.953125 251.007812 562.199219 251.535156 562.421875 252.070312 C 562.644531 252.605469 562.839844 253.152344 563.007812 253.710938 C 563.175781 254.265625 563.316406 254.828125 563.429688 255.398438 C 563.542969 255.96875 563.628906 256.542969 563.6875 257.117188 C 563.742188 257.695312 563.773438 258.277344 563.773438 258.859375 Z M 563.773438 258.859375 " fill-opacity="1" fill-rule="nonzero"/></g><g clip-path="url(#10993ff0fa)"><path fill="#dfc752" d="M 318.695312 258.859375 C 318.695312 259.4375 318.667969 260.019531 318.609375 260.597656 C 318.554688 261.175781 318.46875 261.746094 318.355469 262.316406 C 318.242188 262.886719 318.101562 263.449219 317.933594 264.003906 C 317.765625 264.5625 317.570312 265.109375 317.347656 265.644531 C 317.125 266.179688 316.875 266.707031 316.601562 267.21875 C 316.328125 267.730469 316.03125 268.226562 315.707031 268.710938 C 315.382812 269.195312 315.039062 269.660156 314.671875 270.109375 C 314.300781 270.558594 313.914062 270.988281 313.5 271.398438 C 313.089844 271.808594 312.660156 272.199219 312.210938 272.566406 C 311.761719 272.9375 311.296875 273.28125 310.8125 273.605469 C 310.332031 273.925781 309.832031 274.226562 309.320312 274.5 C 308.808594 274.773438 308.285156 275.019531 307.746094 275.242188 C 307.210938 275.464844 306.664062 275.660156 306.109375 275.828125 C 305.554688 275.996094 304.992188 276.140625 304.421875 276.253906 C 303.851562 276.367188 303.277344 276.449219 302.699219 276.507812 C 302.121094 276.566406 301.542969 276.59375 300.960938 276.59375 C 300.378906 276.59375 299.800781 276.566406 299.222656 276.507812 C 298.644531 276.449219 298.070312 276.367188 297.5 276.253906 C 296.929688 276.140625 296.367188 275.996094 295.8125 275.828125 C 295.257812 275.660156 294.710938 275.464844 294.171875 275.242188 C 293.636719 275.019531 293.113281 274.773438 292.601562 274.5 C 292.089844 274.226562 291.589844 273.925781 291.109375 273.605469 C 290.625 273.28125 290.160156 272.9375 289.710938 272.566406 C 289.261719 272.199219 288.832031 271.808594 288.421875 271.398438 C 288.007812 270.988281 287.621094 270.558594 287.25 270.109375 C 286.882812 269.660156 286.535156 269.195312 286.214844 268.710938 C 285.890625 268.226562 285.59375 267.730469 285.320312 267.21875 C 285.046875 266.707031 284.796875 266.179688 284.574219 265.644531 C 284.351562 265.109375 284.15625 264.5625 283.988281 264.003906 C 283.820312 263.449219 283.679688 262.886719 283.566406 262.316406 C 283.453125 261.746094 283.367188 261.175781 283.3125 260.597656 C 283.253906 260.019531 283.226562 259.4375 283.226562 258.859375 C 283.226562 258.277344 283.253906 257.695312 283.3125 257.117188 C 283.367188 256.542969 283.453125 255.96875 283.566406 255.398438 C 283.679688 254.828125 283.820312 254.265625 283.988281 253.710938 C 284.15625 253.152344 284.351562 252.605469 284.574219 252.070312 C 284.796875 251.535156 285.046875 251.007812 285.320312 250.496094 C 285.59375 249.984375 285.890625 249.488281 286.214844 249.003906 C 286.535156 248.519531 286.882812 248.054688 287.25 247.605469 C 287.621094 247.15625 288.007812 246.726562 288.421875 246.316406 C 288.832031 245.90625 289.261719 245.515625 289.710938 245.148438 C 290.160156 244.777344 290.625 244.433594 291.109375 244.109375 C 291.589844 243.789062 292.089844 243.488281 292.601562 243.214844 C 293.113281 242.941406 293.636719 242.695312 294.171875 242.472656 C 294.710938 242.25 295.257812 242.054688 295.8125 241.886719 C 296.367188 241.71875 296.929688 241.574219 297.5 241.460938 C 298.070312 241.347656 298.644531 241.265625 299.222656 241.207031 C 299.800781 241.152344 300.378906 241.121094 300.960938 241.121094 C 301.542969 241.121094 302.121094 241.152344 302.699219 241.207031 C 303.277344 241.265625 303.851562 241.347656 304.421875 241.460938 C 304.992188 241.574219 305.554688 241.71875 306.109375 241.886719 C 306.664062 242.054688 307.210938 242.25 307.746094 242.472656 C 308.285156 242.695312 308.808594 242.941406 309.320312 243.214844 C 309.832031 243.488281 310.332031 243.789062 310.8125 244.109375 C 311.296875 244.433594 311.761719 244.777344 312.210938 245.148438 C 312.660156 245.515625 313.089844 245.90625 313.5 246.316406 C 313.914062 246.726562 314.300781 247.15625 314.671875 247.605469 C 315.039062 248.054688 315.382812 248.519531 315.707031 249.003906 C 316.03125 249.488281 316.328125 249.984375 316.601562 250.496094 C 316.875 251.007812 317.125 251.535156 317.347656 252.070312 C 317.570312 252.605469 317.765625 253.152344 317.933594 253.710938 C 318.101562 254.265625 318.242188 254.828125 318.355469 255.398438 C 318.46875 255.96875 318.554688 256.542969 318.609375 257.117188 C 318.667969 257.695312 318.695312 258.277344 318.695312 258.859375 Z M 318.695312 258.859375 " fill-opacity="1" fill-rule="nonzero"/></g><path fill="#dfc752" d="M 131.664062 231.445312 L 636.328125 231.445312 L 636.328125 258.855469 L 131.664062 258.855469 Z M 131.664062 231.445312 " fill-opacity="1" fill-rule="nonzero"/><g clip-path="url(#a2cbb5e1a8)"><path fill="#dfc752" d="M 105.867188 94.398438 L 134.890625 94.398438 L 134.890625 229.835938 L 105.867188 229.835938 Z M 105.867188 94.398438 " fill-opacity="1" fill-rule="nonzero"/></g><g clip-path="url(#a38ebb73a5)"><path fill="#dfc752" d="M 105.867188 221.773438 L 141.339844 221.773438 L 141.339844 241.121094 L 105.867188 241.121094 Z M 105.867188 221.773438 " fill-opacity="1" fill-rule="nonzero"/></g><g clip-path="url(#c0d90e8e78)"><path fill="#dfc752" d="M 633.101562 94.398438 L 662.125 94.398438 L 662.125 229.835938 L 633.101562 229.835938 Z M 633.101562 94.398438 " fill-opacity="1" fill-rule="nonzero"/></g><g clip-path="url(#fb8d5124b4)"><path fill="#dfc752" d="M 626.652344 221.773438 L 662.125 221.773438 L 662.125 241.121094 L 626.652344 241.121094 Z M 626.652344 221.773438 " fill-opacity="1" fill-rule="nonzero"/></g><path fill="#dfc752" d="M 629.878906 78.273438 L 138.113281 78.273438 C 130.992188 78.273438 125.214844 84.050781 125.214844 91.175781 L 125.214844 234.671875 L 642.777344 234.671875 L 642.777344 91.175781 C 642.777344 84.050781 637 78.273438 629.878906 78.273438 Z M 212.28125 178.238281 L 136.503906 178.238281 L 136.503906 125.03125 L 212.28125 125.03125 Z M 271.132812 173.402344 C 271.132812 176.074219 268.964844 178.238281 266.296875 178.238281 L 248.558594 178.238281 C 245.886719 178.238281 243.722656 176.074219 243.722656 173.402344 L 243.722656 129.871094 C 243.722656 127.199219 245.886719 125.03125 248.558594 125.03125 L 266.296875 125.03125 C 268.964844 125.03125 271.132812 127.199219 271.132812 129.871094 Z M 311.441406 173.402344 C 311.441406 176.074219 309.273438 178.238281 306.605469 178.238281 L 288.867188 178.238281 C 286.195312 178.238281 284.03125 176.074219 284.03125 173.402344 L 284.03125 129.871094 C 284.03125 127.199219 286.195312 125.03125 288.867188 125.03125 L 306.605469 125.03125 C 309.273438 125.03125 311.441406 127.199219 311.441406 129.871094 Z M 418.660156 178.238281 L 342.882812 178.238281 L 342.882812 125.03125 L 418.660156 125.03125 Z M 476.707031 173.402344 C 476.707031 176.074219 474.539062 178.238281 471.867188 178.238281 L 454.132812 178.238281 C 451.460938 178.238281 449.296875 176.074219 449.296875 173.402344 L 449.296875 129.871094 C 449.296875 127.199219 451.460938 125.03125 454.132812 125.03125 L 471.867188 125.03125 C 474.539062 125.03125 476.707031 127.199219 476.707031 129.871094 Z M 517.015625 173.402344 C 517.015625 176.074219 514.847656 178.238281 512.175781 178.238281 L 494.441406 178.238281 C 491.769531 178.238281 489.605469 176.074219 489.605469 173.402344 L 489.605469 129.871094 C 489.605469 127.199219 491.769531 125.03125 494.441406 125.03125 L 512.175781 125.03125 C 514.847656 125.03125 517.015625 127.199219 517.015625 129.871094 Z M 625.039062 178.238281 L 549.261719 178.238281 L 549.261719 125.03125 L 625.039062 125.03125 Z M 625.039062 178.238281 " fill-opacity="1" fill-rule="nonzero"/><path fill="#df5286" d="M 363.390625 99.234375 L 398.152344 99.234375 C 398.308594 99.234375 398.457031 99.265625 398.597656 99.324219 C 398.738281 99.382812 398.863281 99.464844 398.972656 99.574219 C 399.082031 99.683594 399.167969 99.808594 399.226562 99.953125 C 399.285156 100.09375 399.3125 100.242188 399.3125 100.394531 L 399.3125 114.199219 C 399.3125 114.351562 399.285156 114.5 399.226562 114.644531 C 399.167969 114.785156 399.082031 114.910156 398.972656 115.019531 C 398.863281 115.128906 398.738281 115.210938 398.597656 115.269531 C 398.457031 115.328125 398.308594 115.359375 398.152344 115.359375 L 363.390625 115.359375 C 363.234375 115.359375 363.085938 115.328125 362.945312 115.269531 C 362.804688 115.210938 362.675781 115.128906 362.570312 115.019531 C 362.460938 114.910156 362.375 114.785156 362.316406 114.644531 C 362.257812 114.5 362.230469 114.351562 362.230469 114.199219 L 362.230469 100.394531 C 362.230469 100.242188 362.257812 100.09375 362.316406 99.953125 C 362.375 99.808594 362.460938 99.683594 362.570312 99.574219 C 362.675781 99.464844 362.804688 99.382812 362.945312 99.324219 C 363.085938 99.265625 363.234375 99.234375 363.390625 99.234375 Z M 363.390625 99.234375 " fill-opacity="1" fill-rule="nonzero"/><path fill="#dfc752" d="M 186.25 60.539062 L 289.910156 60.539062 C 290.210938 60.539062 290.511719 60.570312 290.808594 60.628906 C 291.105469 60.6875 291.390625 60.773438 291.671875 60.890625 C 291.949219 61.003906 292.214844 61.148438 292.464844 61.316406 C 292.71875 61.484375 292.949219 61.671875 293.164062 61.886719 C 293.378906 62.101562 293.566406 62.332031 293.734375 62.582031 C 293.902344 62.835938 294.046875 63.101562 294.160156 63.378906 C 294.277344 63.660156 294.363281 63.945312 294.421875 64.242188 C 294.480469 64.539062 294.511719 64.839844 294.511719 65.140625 L 294.511719 80.125 C 294.511719 80.425781 294.480469 80.726562 294.421875 81.019531 C 294.363281 81.316406 294.277344 81.605469 294.160156 81.882812 C 294.046875 82.164062 293.902344 82.429688 293.734375 82.679688 C 293.566406 82.929688 293.378906 83.164062 293.164062 83.375 C 292.949219 83.589844 292.71875 83.78125 292.464844 83.949219 C 292.214844 84.117188 291.949219 84.257812 291.671875 84.375 C 291.390625 84.488281 291.105469 84.578125 290.808594 84.636719 C 290.511719 84.695312 290.210938 84.722656 289.910156 84.722656 L 186.25 84.722656 C 185.945312 84.722656 185.648438 84.695312 185.351562 84.636719 C 185.054688 84.578125 184.765625 84.488281 184.488281 84.375 C 184.207031 84.257812 183.945312 84.117188 183.691406 83.949219 C 183.441406 83.78125 183.207031 83.589844 182.996094 83.375 C 182.78125 83.164062 182.589844 82.929688 182.421875 82.679688 C 182.253906 82.429688 182.113281 82.164062 181.996094 81.882812 C 181.882812 81.605469 181.792969 81.316406 181.734375 81.019531 C 181.675781 80.726562 181.648438 80.425781 181.648438 80.125 L 181.648438 65.140625 C 181.648438 64.839844 181.675781 64.539062 181.734375 64.242188 C 181.792969 63.945312 181.882812 63.660156 181.996094 63.378906 C 182.113281 63.101562 182.253906 62.835938 182.421875 62.582031 C 182.589844 62.332031 182.78125 62.101562 182.996094 61.886719 C 183.207031 61.671875 183.441406 61.484375 183.691406 61.316406 C 183.945312 61.148438 184.207031 61.003906 184.488281 60.890625 C 184.765625 60.773438 185.054688 60.6875 185.351562 60.628906 C 185.648438 60.570312 185.945312 60.539062 186.25 60.539062 Z M 186.25 60.539062 " fill-opacity="1" fill-rule="nonzero"/><path fill="#dfc752" d="M 478.082031 60.539062 L 581.742188 60.539062 C 582.046875 60.539062 582.34375 60.570312 582.640625 60.628906 C 582.9375 60.6875 583.226562 60.773438 583.503906 60.890625 C 583.785156 61.003906 584.046875 61.148438 584.300781 61.316406 C 584.550781 61.484375 584.785156 61.671875 584.996094 61.886719 C 585.210938 62.101562 585.402344 62.332031 585.570312 62.582031 C 585.738281 62.835938 585.878906 63.101562 585.996094 63.378906 C 586.109375 63.660156 586.195312 63.945312 586.257812 64.242188 C 586.316406 64.539062 586.34375 64.839844 586.34375 65.140625 L 586.34375 80.125 C 586.34375 80.425781 586.316406 80.726562 586.257812 81.019531 C 586.195312 81.316406 586.109375 81.605469 585.996094 81.882812 C 585.878906 82.164062 585.738281 82.429688 585.570312 82.679688 C 585.402344 82.929688 585.210938 83.164062 584.996094 83.375 C 584.785156 83.589844 584.550781 83.78125 584.300781 83.949219 C 584.046875 84.117188 583.785156 84.257812 583.503906 84.375 C 583.226562 84.488281 582.9375 84.578125 582.640625 84.636719 C 582.34375 84.695312 582.046875 84.722656 581.742188 84.722656 L 478.082031 84.722656 C 477.78125 84.722656 477.480469 84.695312 477.183594 84.636719 C 476.886719 84.578125 476.601562 84.488281 476.320312 84.375 C 476.042969 84.257812 475.777344 84.117188 475.527344 83.949219 C 475.273438 83.78125 475.042969 83.589844 474.828125 83.375 C 474.613281 83.164062 474.425781 82.929688 474.257812 82.679688 C 474.089844 82.429688 473.945312 82.164062 473.832031 81.882812 C 473.714844 81.605469 473.628906 81.316406 473.570312 81.019531 C 473.511719 80.726562 473.480469 80.425781 473.480469 80.125 L 473.480469 65.140625 C 473.480469 64.839844 473.511719 64.539062 473.570312 64.242188 C 473.628906 63.945312 473.714844 63.660156 473.832031 63.378906 C 473.945312 63.101562 474.089844 62.835938 474.257812 62.582031 C 474.425781 62.332031 474.613281 62.101562 474.828125 61.886719 C 475.042969 61.671875 475.273438 61.484375 475.527344 61.316406 C 475.777344 61.148438 476.042969 61.003906 476.320312 60.890625 C 476.601562 60.773438 476.886719 60.6875 477.183594 60.628906 C 477.480469 60.570312 477.78125 60.539062 478.082031 60.539062 Z M 478.082031 60.539062 " fill-opacity="1" fill-rule="nonzero"/><path fill="#dfc752" d="M 134.492188 76.664062 L 633.5 76.664062 C 638.617188 76.664062 642.777344 80.820312 642.777344 85.941406 L 642.777344 96.011719 L 125.214844 96.011719 L 125.214844 85.941406 C 125.214844 80.820312 129.375 76.664062 134.492188 76.664062 Z M 134.492188 76.664062 " fill-opacity="1" fill-rule="nonzero"/><g clip-path="url(#96be3da63c)"><path fill="#dfc752" d="M 381.578125 81.695312 L 349.136719 49.253906 L 381.578125 16.808594 L 414.019531 49.253906 Z M 355.976562 49.253906 L 381.578125 74.855469 L 407.179688 49.253906 L 381.578125 23.652344 Z M 355.976562 49.253906 " fill-opacity="1" fill-rule="nonzero"/></g><path fill="#dfc752" d="M 521.597656 220.566406 L 444.714844 220.566406 C 442.574219 220.566406 440.832031 218.824219 440.832031 216.683594 L 440.832031 117.226562 C 440.832031 115.085938 442.574219 113.34375 444.714844 113.34375 L 521.597656 113.34375 C 523.738281 113.34375 525.480469 115.085938 525.480469 117.226562 L 525.480469 216.683594 C 525.480469 218.824219 523.738281 220.566406 521.597656 220.566406 Z M 444.714844 114.148438 C 443.015625 114.148438 441.636719 115.53125 441.636719 117.226562 L 441.636719 216.683594 C 441.636719 218.378906 443.015625 219.757812 444.714844 219.757812 L 521.597656 219.757812 C 523.292969 219.757812 524.671875 218.378906 524.671875 216.683594 L 524.671875 117.226562 C 524.671875 115.53125 523.292969 114.148438 521.597656 114.148438 Z M 444.714844 114.148438 " fill-opacity="1" fill-rule="nonzero"/><path fill="#dfc752" d="M 316.023438 221.371094 L 239.140625 221.371094 C 237 221.371094 235.257812 219.628906 235.257812 217.488281 L 235.257812 118.03125 C 235.257812 115.890625 237 114.148438 239.140625 114.148438 L 316.023438 114.148438 C 318.164062 114.148438 319.90625 115.890625 319.90625 118.03125 L 319.90625 217.488281 C 319.90625 219.628906 318.164062 221.371094 316.023438 221.371094 Z M 239.140625 114.957031 C 237.445312 114.957031 236.0625 116.335938 236.0625 118.03125 L 236.0625 217.488281 C 236.0625 219.183594 237.445312 220.5625 239.140625 220.5625 L 316.023438 220.5625 C 317.71875 220.5625 319.097656 219.183594 319.097656 217.488281 L 319.097656 118.03125 C 319.097656 116.335938 317.71875 114.957031 316.023438 114.957031 Z M 239.140625 114.957031 " fill-opacity="1" fill-rule="nonzero"/><path fill="#dfc752" d="M 482.75 113.746094 L 483.558594 113.746094 L 483.558594 220.160156 L 482.75 220.160156 Z M 482.75 113.746094 " fill-opacity="1" fill-rule="nonzero"/><path fill="#dfc752" d="M 277.179688 113.746094 L 277.984375 113.746094 L 277.984375 220.160156 L 277.179688 220.160156 Z M 277.179688 113.746094 " fill-opacity="1" fill-rule="nonzero"/><path fill="#ffffff" d="M 561.1875 353.824219 C 577.25 350.992188 587.976562 335.671875 585.144531 319.613281 C 582.3125 303.550781 566.996094 292.824219 550.933594 295.65625 C 534.871094 298.488281 524.144531 313.804688 526.976562 329.867188 C 529.808594 345.929688 545.128906 356.65625 561.191406 353.824219 Z M 561.1875 353.824219 " fill-opacity="1" fill-rule="nonzero"/><path fill="#ffffff" d="M 615.644531 477.414062 C 615.644531 477.414062 600.285156 390.304688 600.285156 390.304688 C 597.742188 375.867188 585.9375 365.398438 572.058594 363.90625 C 569.113281 363.589844 566.082031 363.667969 563.019531 364.207031 C 552.109375 366.132812 543.464844 373.34375 539.246094 382.742188 L 537.316406 388.40625 L 508.132812 474.1875 L 480.417969 474.1875 C 480.417969 474.1875 436.644531 594.496094 436.644531 594.496094 C 433.316406 603.632812 424.550781 609.773438 414.824219 609.773438 L 376.203125 609.773438 L 376.203125 623.058594 L 414.824219 623.058594 C 430.113281 623.058594 443.898438 613.402344 449.125 599.039062 L 489.71875 487.472656 L 503.613281 487.472656 L 500.796875 495.75 L 520.675781 502.988281 L 544.371094 441.933594 C 549.238281 463.097656 556.941406 482.28125 566.195312 495.890625 L 549.28125 655.6875 L 575.25 660.265625 L 594.28125 552.320312 L 621.113281 660.265625 L 647.082031 655.6875 L 615.644531 477.410156 Z M 615.644531 477.414062 " fill-opacity="1" fill-rule="nonzero"/><path fill="#ffffff" d="M 405.214844 645.632812 C 405.214844 646.59375 405.121094 647.542969 404.933594 648.488281 C 404.746094 649.429688 404.46875 650.34375 404.097656 651.230469 C 403.730469 652.121094 403.28125 652.964844 402.746094 653.761719 C 402.214844 654.5625 401.605469 655.300781 400.925781 655.980469 C 400.246094 656.660156 399.507812 657.265625 398.710938 657.800781 C 397.910156 658.332031 397.066406 658.785156 396.179688 659.152344 C 395.292969 659.519531 394.375 659.796875 393.433594 659.984375 C 392.492188 660.171875 391.539062 660.265625 390.578125 660.265625 C 389.617188 660.265625 388.667969 660.171875 387.722656 659.984375 C 386.78125 659.796875 385.867188 659.519531 384.980469 659.152344 C 384.089844 658.785156 383.246094 658.332031 382.449219 657.800781 C 381.648438 657.265625 380.910156 656.660156 380.230469 655.980469 C 379.550781 655.300781 378.945312 654.5625 378.410156 653.761719 C 377.878906 652.964844 377.425781 652.121094 377.058594 651.230469 C 376.691406 650.34375 376.414062 649.429688 376.226562 648.488281 C 376.039062 647.542969 375.945312 646.59375 375.945312 645.632812 C 375.945312 644.671875 376.039062 643.71875 376.226562 642.777344 C 376.414062 641.835938 376.691406 640.917969 377.058594 640.03125 C 377.425781 639.144531 377.878906 638.300781 378.410156 637.5 C 378.945312 636.703125 379.550781 635.964844 380.230469 635.285156 C 380.910156 634.605469 381.648438 633.996094 382.449219 633.464844 C 383.246094 632.929688 384.089844 632.480469 384.980469 632.113281 C 385.867188 631.742188 386.78125 631.464844 387.722656 631.277344 C 388.667969 631.089844 389.617188 630.996094 390.578125 630.996094 C 391.539062 630.996094 392.492188 631.089844 393.433594 631.277344 C 394.375 631.464844 395.292969 631.742188 396.179688 632.113281 C 397.066406 632.480469 397.910156 632.929688 398.710938 633.464844 C 399.507812 633.996094 400.246094 634.605469 400.925781 635.285156 C 401.605469 635.964844 402.214844 636.703125 402.746094 637.5 C 403.28125 638.300781 403.730469 639.144531 404.097656 640.03125 C 404.46875 640.917969 404.746094 641.835938 404.933594 642.777344 C 405.121094 643.71875 405.214844 644.671875 405.214844 645.632812 Z M 405.214844 645.632812 " fill-opacity="1" fill-rule="nonzero"/><path fill="#ffffff" d="M 457.625 645.632812 C 457.625 646.59375 457.53125 647.542969 457.34375 648.488281 C 457.15625 649.429688 456.878906 650.34375 456.511719 651.230469 C 456.144531 652.121094 455.695312 652.964844 455.160156 653.761719 C 454.625 654.5625 454.019531 655.300781 453.339844 655.980469 C 452.660156 656.660156 451.921875 657.265625 451.121094 657.800781 C 450.324219 658.332031 449.480469 658.785156 448.59375 659.152344 C 447.703125 659.519531 446.789062 659.796875 445.847656 659.984375 C 444.90625 660.171875 443.953125 660.265625 442.992188 660.265625 C 442.03125 660.265625 441.078125 660.171875 440.136719 659.984375 C 439.195312 659.796875 438.28125 659.519531 437.390625 659.152344 C 436.503906 658.785156 435.660156 658.332031 434.863281 657.800781 C 434.0625 657.265625 433.324219 656.660156 432.644531 655.980469 C 431.964844 655.300781 431.359375 654.5625 430.824219 653.761719 C 430.289062 652.964844 429.839844 652.121094 429.472656 651.230469 C 429.105469 650.34375 428.828125 649.429688 428.640625 648.488281 C 428.453125 647.542969 428.359375 646.59375 428.359375 645.632812 C 428.359375 644.671875 428.453125 643.71875 428.640625 642.777344 C 428.828125 641.835938 429.105469 640.917969 429.472656 640.03125 C 429.839844 639.144531 430.289062 638.300781 430.824219 637.5 C 431.359375 636.703125 431.964844 635.964844 432.644531 635.285156 C 433.324219 634.605469 434.0625 633.996094 434.863281 633.464844 C 435.660156 632.929688 436.503906 632.480469 437.390625 632.113281 C 438.28125 631.742188 439.195312 631.464844 440.136719 631.277344 C 441.078125 631.089844 442.03125 630.996094 442.992188 630.996094 C 443.953125 630.996094 444.90625 631.089844 445.847656 631.277344 C 446.789062 631.464844 447.703125 631.742188 448.59375 632.113281 C 449.480469 632.480469 450.324219 632.929688 451.121094 633.464844 C 451.921875 633.996094 452.660156 634.605469 453.339844 635.285156 C 454.019531 635.964844 454.625 636.703125 455.160156 637.5 C 455.695312 638.300781 456.144531 639.144531 456.511719 640.03125 C 456.878906 640.917969 457.15625 641.835938 457.34375 642.777344 C 457.53125 643.71875 457.625 644.671875 457.625 645.632812 Z M 457.625 645.632812 " fill-opacity="1" fill-rule="nonzero"/><path fill="#ffffff" d="M 461.535156 493.445312 C 461.675781 494.25 461.777344 495.0625 461.839844 495.875 C 461.902344 496.691406 461.925781 497.507812 461.90625 498.328125 C 461.890625 499.144531 461.832031 499.960938 461.734375 500.769531 C 461.636719 501.582031 461.496094 502.386719 461.320312 503.1875 C 461.144531 503.984375 460.925781 504.773438 460.671875 505.550781 C 460.417969 506.328125 460.125 507.089844 459.796875 507.839844 C 459.46875 508.585938 459.101562 509.316406 458.699219 510.03125 C 458.300781 510.742188 457.863281 511.433594 457.394531 512.105469 C 456.925781 512.773438 456.425781 513.421875 455.890625 514.039062 C 455.359375 514.660156 454.796875 515.253906 454.207031 515.820312 C 453.617188 516.386719 453 516.921875 452.355469 517.425781 C 451.710938 517.929688 451.046875 518.402344 450.355469 518.839844 C 449.664062 519.28125 448.957031 519.6875 448.226562 520.054688 C 447.496094 520.425781 446.75 520.757812 445.988281 521.054688 C 445.226562 521.351562 444.449219 521.609375 443.664062 521.828125 C 442.875 522.050781 442.078125 522.230469 441.273438 522.371094 C 440.46875 522.515625 439.65625 522.617188 438.84375 522.679688 C 438.027344 522.742188 437.210938 522.761719 436.390625 522.746094 C 435.574219 522.726562 434.761719 522.667969 433.949219 522.570312 C 433.136719 522.472656 432.332031 522.335938 431.53125 522.15625 C 430.734375 521.980469 429.945312 521.765625 429.167969 521.511719 C 428.390625 521.257812 427.628906 520.964844 426.878906 520.632812 C 426.132812 520.304688 425.402344 519.941406 424.6875 519.539062 C 423.976562 519.136719 423.285156 518.703125 422.613281 518.234375 C 421.945312 517.761719 421.300781 517.261719 420.679688 516.730469 C 420.058594 516.195312 419.464844 515.636719 418.898438 515.042969 C 418.332031 514.453125 417.796875 513.835938 417.292969 513.191406 C 416.789062 512.550781 416.316406 511.882812 415.878906 511.191406 C 415.4375 510.503906 415.035156 509.792969 414.664062 509.0625 C 414.292969 508.335938 413.960938 507.589844 413.664062 506.824219 C 413.367188 506.0625 413.109375 505.289062 412.890625 504.5 C 412.671875 503.714844 412.488281 502.917969 412.347656 502.113281 C 412.207031 501.304688 412.101562 500.496094 412.039062 499.679688 C 411.976562 498.863281 411.957031 498.046875 411.972656 497.230469 C 411.992188 496.414062 412.050781 495.597656 412.148438 494.785156 C 412.246094 493.972656 412.382812 493.167969 412.5625 492.371094 C 412.738281 491.570312 412.953125 490.785156 413.207031 490.007812 C 413.464844 489.230469 413.753906 488.464844 414.085938 487.71875 C 414.414062 486.96875 414.78125 486.238281 415.179688 485.527344 C 415.582031 484.8125 416.015625 484.121094 416.488281 483.453125 C 416.957031 482.78125 417.457031 482.136719 417.988281 481.515625 C 418.523438 480.894531 419.082031 480.300781 419.675781 479.738281 C 420.265625 479.171875 420.882812 478.636719 421.527344 478.132812 C 422.167969 477.625 422.835938 477.15625 423.527344 476.714844 C 424.214844 476.277344 424.925781 475.871094 425.65625 475.5 C 426.382812 475.132812 427.128906 474.800781 427.894531 474.503906 C 428.65625 474.207031 429.429688 473.949219 430.21875 473.726562 C 431.003906 473.507812 431.800781 473.328125 432.609375 473.183594 C 433.414062 473.042969 434.222656 472.941406 435.039062 472.878906 C 435.855469 472.816406 436.671875 472.792969 437.488281 472.8125 C 438.304688 472.828125 439.121094 472.886719 439.933594 472.984375 C 440.746094 473.082031 441.550781 473.222656 442.347656 473.398438 C 443.148438 473.574219 443.933594 473.792969 444.710938 474.046875 C 445.488281 474.300781 446.253906 474.59375 447 474.921875 C 447.75 475.25 448.480469 475.617188 449.191406 476.019531 C 449.90625 476.417969 450.597656 476.855469 451.265625 477.324219 C 451.9375 477.792969 452.582031 478.292969 453.203125 478.828125 C 453.824219 479.359375 454.417969 479.921875 454.980469 480.511719 C 455.546875 481.101562 456.082031 481.71875 456.585938 482.363281 C 457.09375 483.007812 457.566406 483.671875 458.003906 484.363281 C 458.445312 485.054688 458.847656 485.761719 459.21875 486.492188 C 459.585938 487.222656 459.921875 487.96875 460.214844 488.730469 C 460.511719 489.492188 460.769531 490.269531 460.992188 491.054688 C 461.210938 491.84375 461.390625 492.640625 461.535156 493.445312 Z M 461.535156 493.445312 " fill-opacity="1" fill-rule="nonzero"/><path fill="#ffffff" d="M 411.492188 601.910156 C 419.65625 601.9375 427.328125 596.910156 430.28125 588.796875 L 442.726562 554.597656 C 446.492188 544.257812 441.160156 532.824219 430.820312 529.058594 C 420.480469 525.296875 409.042969 530.628906 405.28125 540.96875 L 392.832031 575.167969 C 392.441406 576.246094 392.152344 577.335938 391.953125 578.425781 L 366.597656 581.675781 L 340.878906 606.628906 L 349.753906 617.203125 L 374.742188 601.914062 L 411.492188 601.914062 Z M 411.492188 601.910156 " fill-opacity="1" fill-rule="nonzero"/><g clip-path="url(#8267a59bde)"><g transform="matrix(1, 0, 0, 1, 72, 375)"><g clip-path="url(#517db387f8)"><g clip-path="url(#8c40bfb200)"><path fill="#ffffff" d="M 168.449219 51.570312 C 155.371094 50.363281 145.214844 39.097656 145.214844 25.921875 C 145.214844 11.738281 156.785156 0.167969 170.964844 0.167969 C 185.148438 0.167969 196.71875 11.738281 196.71875 25.921875 C 196.71875 30.246094 195.511719 34.671875 193.5 38.394531 L 184.324219 167.507812 L 89.820312 167.535156 L 51.058594 258.355469 L 0.167969 238.398438 L 8.046875 219.632812 L 36.527344 229.914062 L 74.03125 143.332031 L 161.898438 143.921875 L 163.105469 127.570312 L 99.496094 127.59375 L 99.496094 103.402344 L 165.53125 103.375 Z M 168.449219 51.570312 " fill-opacity="1" fill-rule="evenodd"/></g><g clip-path="url(#91c1fcf06b)"><path fill="#ffffff" d="M 73.40625 236.738281 C 89.355469 268.269531 122.742188 289.039062 158.351562 289.039062 C 210.652344 289.039062 253.308594 246.382812 253.308594 194.078125 C 253.308594 157.355469 231.054688 123.234375 197.84375 108.105469 L 195.695312 136.152344 C 215.335938 148.527344 227.445312 170.863281 227.445312 194.273438 C 227.445312 232.214844 196.5 263.160156 158.558594 263.160156 C 123.847656 263.160156 94.25 236.519531 90.210938 202.34375 Z M 73.40625 236.738281 " fill-opacity="1" fill-rule="evenodd"/></g></g></g></g></svg>